<svg 
  xmlns="http://www.w3.org/2000/svg" 
  xmlns:xlink="http://www.w3.org/1999/xlink" version="1.1" x="0px" y="0px" viewBox="0 0 100 100" style="enable-background:new 0 0 100 100;" xml:space="preserve">
  <g>
    <path d="M22.955,50.659c0.002,0.008,0.002,0.016,0.004,0.023c0.009,0.034,0.025,0.066,0.036,0.099   c0.012,0.035,0.019,0.071,0.034,0.105c0.003,0.006,0.008,0.01,0.01,0.016c0.047,0.103,0.108,0.197,0.179,0.284   c0.02,0.024,0.041,0.045,0.062,0.067c0.061,0.064,0.127,0.122,0.201,0.173c0.021,0.015,0.041,0.032,0.063,0.046   c0.01,0.006,0.018,0.014,0.028,0.02l25.618,14.87c0.204,0.118,0.432,0.177,0.659,0.177c0.051,0,0.1-0.014,0.15-0.02   c0.05,0.006,0.1,0.02,0.15,0.02c0.228,0,0.455-0.059,0.659-0.177l25.618-14.87c0.305-0.177,0.525-0.469,0.613-0.81   c0.087-0.341,0.034-0.703-0.148-1.005L51.276,7.219c-0.259-0.428-0.732-0.648-1.218-0.614c-0.524-0.085-1.054,0.152-1.333,0.614   L23.106,49.678c-0.017,0.028-0.027,0.059-0.042,0.089c-0.022,0.044-0.046,0.086-0.063,0.132c-0.013,0.035-0.02,0.072-0.031,0.109   c-0.013,0.046-0.027,0.092-0.035,0.139c-0.006,0.036-0.006,0.073-0.009,0.11c-0.004,0.049-0.009,0.097-0.007,0.147   c0.001,0.038,0.008,0.075,0.013,0.113C22.939,50.564,22.943,50.611,22.955,50.659z M51.464,12.618l21.141,35.039l-21.141-9.33   V12.618z M51.464,41.198l21.283,9.393L51.464,62.945V41.198z M48.536,12.618v25.576l-21.032,9.282L48.536,12.618z M48.536,41.066   v21.878L27.123,50.516L48.536,41.066z"/>
    <path d="M75.098,55.139L50,70.058L24.902,55.139c-0.533-0.318-1.218-0.217-1.638,0.24c-0.421,0.458-0.463,1.148-0.101,1.653   l25.618,35.83c0.251,0.352,0.653,0.55,1.069,0.55c0.05,0,0.1-0.018,0.15-0.024c0.05,0.006,0.1,0.024,0.15,0.024   c0.416,0,0.817-0.198,1.069-0.55l25.618-35.83c0.362-0.505,0.319-1.195-0.101-1.653C76.315,54.922,75.631,54.822,75.098,55.139z    M48.536,88.003L28.94,60.596l19.596,11.648V88.003z M51.464,88.003V72.244L71.06,60.596L51.464,88.003z"/>
  </g>
</svg>