<svg 
  xmlns="http://www.w3.org/2000/svg" 
  xmlns:xlink="http://www.w3.org/1999/xlink" version="1.2" baseProfile="tiny" x="0px" y="0px" viewBox="0 0 100 100" xml:space="preserve">
  <path fill="#000000" d="M71.3,23.8v-5.8c0-0.8-0.7-1.5-1.5-1.5s-1.5,0.7-1.5,1.5v3.7c-1-0.6-2.1-1.1-3.2-1.6c-1.2-2-3.3-3.7-5.8-4.9  c0-0.1,0-0.1,0-0.2v-6c0-0.8-0.7-1.5-1.5-1.5s-1.5,0.7-1.5,1.5v5c-2-0.6-4.1-0.9-6.3-0.9c-2.4,0-4.6,0.4-6.7,1V8.9  c0-0.8-0.7-1.5-1.5-1.5s-1.5,0.7-1.5,1.5v6c0,0.1,0,0.2,0,0.3C38,16.5,36,18.1,34.9,20c-0.1,0-0.2,0-0.2,0.1  c-1.2,0.5-2.3,1.1-3.3,1.7v-3.9c0-0.8-0.7-1.5-1.5-1.5s-1.5,0.7-1.5,1.5v6c0,0,0,0,0,0.1c-3.1,2.8-4.9,6.1-4.9,9.6v57.5  c0,0.8,0.7,1.5,1.5,1.5s1.5-0.7,1.5-1.5V33.6c0-3.6,2.6-7,7-9.6c0,0.2,0,0.4,0,0.6v11.5c0,0.8,0.7,1.5,1.5,1.5s1.5-0.7,1.5-1.5V24.6  c0-4.3,5.4-8,12-8.4V40c0,0.8,0.7,1.5,1.5,1.5s1.5-0.7,1.5-1.5V16.1c6.6,0.5,12,4.2,12,8.4v11.5c0,0.8,0.7,1.5,1.5,1.5  s1.5-0.7,1.5-1.5V24.6c0-0.2,0-0.4,0-0.6c4.5,2.5,7,6,7,9.6v57.5c0,0.8,0.7,1.5,1.5,1.5s1.5-0.7,1.5-1.5V33.6  C76.5,30,74.6,26.6,71.3,23.8z"/>
</svg>