<svg 
  xmlns="http://www.w3.org/2000/svg" 
  xmlns:xlink="http://www.w3.org/1999/xlink" version="1.1" x="0px" y="0px" viewBox="0 0 100 100" enable-background="new 0 0 100 100" xml:space="preserve">
  <g>
    <path d="M79,34.959h1.25v-28H21.083v28h1.25c3.63,0,6.583,2.953,6.583,6.583s-2.953,6.583-6.583,6.583h-1.25V94.04H80.25V48.125H79   c-3.63,0-6.583-2.953-6.583-6.583C72.417,37.912,75.37,34.959,79,34.959z M70.013,40.292h-2.894v2.5h2.894   c0.556,4.009,3.728,7.193,7.737,7.748v41H23.583v-41c4.009-0.555,7.182-3.739,7.738-7.748h2.893v-2.5h-2.893   c-0.556-4.009-3.729-7.193-7.738-7.747V9.459H77.75v23.086C73.74,33.099,70.568,36.283,70.013,40.292z"/>
    <rect x="37.557" y="40.292" width="4.047" height="2.5"/>
    <rect x="44.948" y="40.292" width="4.047" height="2.5"/>
    <rect x="52.338" y="40.292" width="4.048" height="2.5"/>
    <rect x="59.729" y="40.292" width="4.048" height="2.5"/>
    <path d="M27.25,87.75h20.139V53.5H27.25V87.75z M29.75,56h15.139v29.25H29.75V56z"/>
    <rect x="51.336" y="54.75" width="2.5" height="31.75"/>
    <rect x="58.336" y="54.75" width="2.5" height="31.75"/>
    <rect x="65.336" y="54.75" width="2.5" height="31.75"/>
    <rect x="30.94" y="13.5" width="2.5" height="17.25"/>
    <rect x="50.94" y="13.5" width="2.5" height="17.25"/>
    <rect x="55.94" y="13.5" width="2.5" height="17.25"/>
    <rect x="60.94" y="13.5" width="2.5" height="17.25"/>
    <rect x="65.94" y="13.5" width="2.5" height="17.25"/>
  </g>
</svg>